FFmpeg version SVN-r25716, Copyright (c) 2000-2010 the FFmpeg developers  built on Nov 10 2010 12:23:18 with gcc 4.1.2 20080704 (Red Hat 4.1.2-48)  configuration: --enable-libmp3lame --enable-shared --disable-mmx --arch=x86_64  libavutil     50.33. 0 / 50.33. 0  libavcore      0.12. 1 /  0.12. 1  libavcodec    52.94. 4 / 52.94. 4  libavformat   52.84. 0 / 52.84. 0  libavdevice   52. 2. 2 / 52. 2. 2  libavfilter    1.59. 0 /  1.59. 0  libswscale     0.12. 0 /  0.12. 0Seems stream 0 codec frame rate differs from container frame rate: 600.00 (600/1) -> 8.00 (8/1)Input #0, mov,mp4,m4a,3gp,3g2,mj2, from '/RAID10/data/converted_video_files/22705.mov':  Metadata:    major_brand     : qt      minor_version   : 537199360    compatible_brands: qt    Duration: 00:00:06.12, start: 0.000000, bitrate: 6305 kb/s    Stream #0.0(eng): Video: svq3, yuvj420p, 358x355, 6303 kb/s, 8 fps, 8 tbr, 600 tbn, 600 tbc[buffer @ 0x27b9030] w:358 h:355 pixfmt:yuvj420p[ffsink @ 0x27b7e20] auto-inserting filter 'auto-inserted scaler 0' between the filter 'src' and the filter 'out'[scale @ 0x27b8140] w:358 h:355 fmt:yuvj420p -> w:358 h:355 fmt:yuv420p flags:0x4Output #0, flv, to '/RAID10/data/converted_video_files/22705.flv':  Metadata:    encoder         : Lavf52.84.0    Stream #0.0(eng): Video: flv, yuv420p, 358x355, q=2-31, 600 kb/s, 1k tbn, 24 tbcStream mapping:  Stream #0.0 -> #0.0Press [q] to stop encodingframe=   33 fps=  0 q=17.6 size=     412kB time=4.04 bitrate= 834.9kbits/s    frame=   49 fps=  0 q=16.4 Lsize=     478kB time=6.04 bitrate= 648.2kbits/s    video:477kB audio:0kB global headers:0kB muxing overhead 0.203447%